# xmcd
#
# Track frame offsets: 
#        150
#        16793
#        30768
#        49660
#        73273
#        93787
#        113538
#        132875
#        151196
#        168317
#        186563
#        201806
#        231777
#        253743
#        282606
#
# Disc length: 4036 seconds
#
# Revision: 5
# Processed by: cddbd v1.5.2PL0 Copyright (c) Steve Scherf et al.
# Submitted via: ExactAudioCopyFreeDBPlugin 1.0
#
DISCID=c30fc20f
DTITLE=Various Artist - JUDY AND MARY 15th Anniversary Tribute Album
DYEAR=2009
DGENRE=JPop
TTITLE0=いきものがかり - クラシック
TTITLE1=PUFFY - motto
TTITLE2=mihimaru GT - Over Drive
TTITLE3=奥田民生 - 散歩道
TTITLE4=半沢武志（FreeTEMPO） - RADIO
TTITLE5=school food punishment - Brand New Wave Upper Ground
TTITLE6=HALCALI - ラッキープール
TTITLE7=SCANDAL - DAYDREAM
TTITLE8=木村カエラ - Happy?
TTITLE9=中川翔子 - そばかす
TTITLE10=ミドリ - ミュージックファイター
TTITLE11=大塚 愛 - LOVER SOUL
TTITLE12=シギ - KYOTO
TTITLE13=スネオヘアー - 小さな頃から
TTITLE14=真心ブラザーズ - ドキドキ
EXTD=YEAR: 2009
EXTT0=
EXTT1=
EXTT2=
EXTT3=
EXTT4=
EXTT5=
EXTT6=
EXTT7=
EXTT8=
EXTT9=
EXTT10=
EXTT11=
EXTT12=
EXTT13=
EXTT14=
PLAYORDER=
